<svg version="1.1" id="Layer_1" xmlns="http://www.w3.org/2000/svg" xmlns:xlink="http://www.w3.org/1999/xlink" x="0px" y="0px"
	 width="100%" viewBox="0 0 2084 2084" enable-background="new 0 0 2084 2084" xml:space="preserve">
<path fill="#0200ad" opacity="1.000000" stroke="none" 
	d="
M1426.000000,2086.000000 
	C950.723389,2086.000000 476.446808,2086.000000 2.170221,2086.000000 
	C2.113471,2085.723389 2.006986,2085.447021 2.006983,2085.170410 
	C1.999978,1390.920166 2.000000,696.669800 2.000000,2.209765 
	C696.443604,2.209765 1390.887329,2.209765 2085.665527,2.209765 
	C2085.665527,696.666504 2085.665527,1391.333252 2085.665527,2086.000000 
	C1866.278809,2086.000000 1646.639404,2086.000000 1426.000000,2086.000000 
M1597.656372,643.546021 
	C1598.433594,643.565613 1599.210815,643.585205 1599.988037,643.604736 
	C1599.342529,642.683411 1598.697144,641.762024 1597.653687,639.754761 
	C1597.012573,640.115906 1596.371582,640.477051 1595.730469,640.838257 
	C1596.096924,641.241760 1596.463501,641.645325 1597.656372,643.546021 
M400.033020,888.683899 
	C402.151855,887.099182 404.270660,885.514465 407.804138,883.429260 
	C442.016846,861.526428 475.941223,839.155945 510.513885,817.836792 
	C555.625000,790.019165 602.314209,765.158264 652.319702,747.071777 
	C694.335938,731.875000 737.288330,722.173157 782.375061,726.037842 
	C796.534302,727.251587 810.526123,729.535828 823.992981,734.971313 
	C823.992981,738.576355 823.992981,741.558960 823.992981,744.541565 
	C823.992615,1023.172668 824.166199,1301.804077 823.836365,1580.434692 
	C823.774780,1632.493408 801.482788,1674.373413 759.758545,1705.347168 
	C734.197937,1724.322021 705.841736,1738.370605 675.427429,1747.893921 
	C610.533386,1768.213379 545.405884,1767.074463 480.588837,1748.014526 
	C421.912903,1730.760376 375.221863,1696.297241 340.325653,1646.094360 
	C305.229736,1595.604126 289.098694,1539.000366 287.778778,1477.983887 
	C287.101379,1446.670288 287.501160,1415.333618 287.416565,1384.007324 
	C287.407898,1380.798950 287.415405,1377.590576 287.415405,1372.326172 
	C223.900909,1411.540283 162.032898,1449.737793 100.311592,1487.844727 
	C100.311592,1489.476440 100.155037,1490.494019 100.336273,1491.447388 
	C101.827965,1499.292603 103.170914,1507.174194 104.951088,1514.955078 
	C119.563087,1578.821899 150.928604,1634.663696 189.962219,1686.159180 
	C218.903381,1724.340088 257.049316,1752.607056 298.743988,1775.876587 
	C363.380554,1811.949707 432.844147,1832.314453 506.508881,1838.290283 
	C574.400330,1843.797729 641.619568,1840.046753 707.622620,1821.959229 
	C747.574097,1811.010864 786.394653,1796.923462 821.790405,1775.189575 
	C887.621704,1734.767334 952.940918,1693.511353 1018.466064,1652.590698 
	C1021.266174,1650.842163 1023.994019,1648.977783 1026.394775,1647.403931 
	C1026.394775,1290.310791 1026.394775,933.826172 1026.394775,576.970154 
	C1023.517822,576.824829 1021.239197,576.609497 1018.960571,576.609070 
	C917.640137,576.592346 816.319702,576.644653 714.999573,576.466797 
	C709.082947,576.456421 705.126831,578.506226 701.143921,582.568176 
	C680.844482,603.270203 660.321838,623.753662 639.844604,644.281006 
	C564.287903,720.022522 488.714813,795.747681 413.169708,871.500793 
	C410.598755,874.078796 408.261566,876.889954 404.573334,879.985107 
	C402.295441,882.562500 400.017548,885.139893 396.442535,887.817078 
	C395.806000,888.308289 395.169434,888.799500 394.532898,889.290771 
	C395.994110,889.210999 397.455322,889.131165 400.033020,888.683899 
M1205.837402,1741.138672 
	C1214.181030,1746.630493 1222.375122,1752.367676 1230.898804,1757.564087 
	C1249.924316,1769.162476 1268.397217,1781.965210 1288.359985,1791.677612 
	C1381.887207,1837.180664 1480.681274,1852.234131 1583.799561,1840.358276 
	C1647.998901,1832.964478 1708.717529,1814.256104 1765.845215,1784.100098 
	C1825.851318,1752.424927 1878.046997,1711.230103 1918.990234,1656.642456 
	C1954.193115,1609.708252 1977.437988,1557.527222 1985.501343,1499.224731 
	C1993.874878,1438.679199 1991.421997,1378.228760 1981.129150,1318.083496 
	C1970.247192,1254.495605 1951.151611,1193.312744 1926.539307,1133.764404 
	C1890.267334,1046.005615 1843.369995,964.077759 1790.437012,885.465576 
	C1734.887329,802.967590 1673.052490,725.354736 1607.477051,650.664185 
	C1605.460693,648.367615 1603.165894,646.315369 1601.000977,644.149292 
	C1599.790894,650.647278 1603.069336,654.901672 1605.315796,659.462585 
	C1640.464478,730.823486 1674.032227,802.913269 1704.960449,876.209534 
	C1733.039795,942.754456 1759.493408,1009.910767 1779.003418,1079.575073 
	C1785.369873,1102.308350 1790.836548,1125.258911 1793.600830,1149.096924 
	C1791.630615,1149.416016 1790.032593,1149.837402 1788.418213,1149.912720 
	C1749.302368,1151.740112 1710.456421,1149.344604 1672.134644,1141.174316 
	C1565.394775,1118.417114 1473.139282,1068.700439 1396.341064,991.054688 
	C1351.215698,945.431213 1316.733643,892.929138 1297.165649,831.295959 
	C1288.752319,804.796814 1283.586670,777.680237 1283.259277,749.887939 
	C1283.149170,740.539978 1280.054443,734.545959 1272.415405,729.437073 
	C1263.299316,723.340454 1255.019653,716.003906 1246.278442,709.334534 
	C1191.187622,667.301819 1136.072876,625.300415 1080.948486,583.311829 
	C1078.351562,581.333740 1075.587280,579.575439 1071.690063,576.876038 
	C1071.430176,582.331299 1070.993164,586.559570 1071.063721,590.779297 
	C1071.906738,641.169250 1076.925415,691.142090 1085.787842,740.759705 
	C1100.026367,820.475952 1123.491211,897.243164 1158.972534,970.144775 
	C1192.641479,1039.322266 1235.972656,1101.715454 1291.076050,1155.626953 
	C1366.145264,1229.072632 1455.007935,1279.096924 1555.011597,1309.850342 
	C1640.670044,1336.192139 1728.612427,1347.268799 1818.007080,1348.163208 
	C1824.571411,1348.228882 1831.136963,1348.171875 1837.340942,1348.171875 
	C1837.838379,1350.083862 1838.113403,1350.714111 1838.154297,1351.359253 
	C1841.110474,1397.982910 1841.518188,1444.557739 1836.384277,1491.098145 
	C1832.351440,1527.656494 1825.078613,1563.449463 1811.770386,1597.800171 
	C1780.285522,1679.066650 1723.370239,1732.985107 1638.574219,1755.192749 
	C1578.834473,1770.838379 1518.421143,1770.680176 1458.616577,1755.264404 
	C1382.954590,1735.761230 1326.698242,1690.727783 1289.545166,1622.059082 
	C1265.781006,1578.137085 1254.871704,1530.768433 1253.934204,1481.083496 
	C1253.355835,1450.430664 1253.725220,1419.760010 1253.670532,1389.097290 
	C1253.664673,1385.847900 1253.669678,1382.598389 1253.669678,1377.881836 
	C1190.299805,1404.941650 1128.040039,1431.527466 1066.075684,1457.987061 
	C1066.075684,1522.317749 1066.075684,1585.618042 1066.075684,1649.250122 
	C1112.281494,1679.610596 1158.467529,1709.958130 1205.837402,1741.138672 
M1074.999634,516.595215 
	C1165.317017,516.509094 1255.634521,516.423279 1345.951904,516.320984 
	C1346.231079,516.320679 1346.591919,516.147400 1346.767334,515.933777 
	C1346.963989,515.694397 1346.992676,515.316956 1347.256104,514.495300 
	C1293.965454,451.334106 1242.333130,386.485931 1193.008179,319.818665 
	C1143.663208,253.124359 1096.367676,185.031540 1052.801147,113.333290 
	C965.135437,255.504913 864.675537,387.549500 756.487732,516.595215 
	C863.380676,516.595215 968.190063,516.595215 1074.999634,516.595215 
M1074.237671,1696.653809 
	C1073.600098,1695.883667 1072.852661,1695.179688 1072.342529,1694.332764 
	C1068.744141,1688.358154 1063.937500,1685.709839 1056.618408,1686.819336 
	C1051.080688,1687.658691 1045.225098,1687.599976 1039.670166,1686.815186 
	C1033.145020,1685.893311 1029.366577,1688.613647 1025.346313,1693.306519 
	C998.032349,1725.191162 970.673279,1757.043091 942.881531,1788.510742 
	C887.930908,1850.729492 829.848389,1909.981689 771.203308,1968.690552 
	C769.501404,1970.394287 768.148987,1972.447266 765.898804,1975.253662 
	C954.645264,1975.253662 1141.858276,1975.253784 1329.071167,1975.221313 
	C1329.279053,1975.221313 1329.517944,1974.750854 1329.685791,1974.466797 
	C1329.836182,1974.212036 1329.908203,1973.910767 1330.265503,1972.970581 
	C1240.643799,1885.754272 1155.595581,1793.885132 1074.237671,1696.653809 
M1595.612061,637.186096 
	C1595.190186,637.173462 1594.768188,637.160889 1594.346313,637.148254 
	C1594.550171,637.388062 1594.754028,637.627808 1595.612061,637.186096 
z"/>
<path fill="#FEFEFE" opacity="1.000000" stroke="none" 
	d="
M1205.245605,1740.722168 
	C1158.467529,1709.958130 1112.281494,1679.610596 1066.075684,1649.250122 
	C1066.075684,1585.618042 1066.075684,1522.317749 1066.075684,1457.987061 
	C1128.040039,1431.527466 1190.299805,1404.941650 1253.669678,1377.881836 
	C1253.669678,1382.598389 1253.664673,1385.847900 1253.670532,1389.097290 
	C1253.725220,1419.760010 1253.355835,1450.430664 1253.934204,1481.083496 
	C1254.871704,1530.768433 1265.781006,1578.137085 1289.545166,1622.059082 
	C1326.698242,1690.727783 1382.954590,1735.761230 1458.616577,1755.264404 
	C1518.421143,1770.680176 1578.834473,1770.838379 1638.574219,1755.192749 
	C1723.370239,1732.985107 1780.285522,1679.066650 1811.770386,1597.800171 
	C1825.078613,1563.449463 1832.351440,1527.656494 1836.384277,1491.098145 
	C1841.518188,1444.557739 1841.110474,1397.982910 1838.154297,1351.359253 
	C1838.113403,1350.714111 1837.838379,1350.083862 1837.340942,1348.171875 
	C1831.136963,1348.171875 1824.571411,1348.228882 1818.007080,1348.163208 
	C1728.612427,1347.268799 1640.670044,1336.192139 1555.011597,1309.850342 
	C1455.007935,1279.096924 1366.145264,1229.072632 1291.076050,1155.626953 
	C1235.972656,1101.715454 1192.641479,1039.322266 1158.972534,970.144775 
	C1123.491211,897.243164 1100.026367,820.475952 1085.787842,740.759705 
	C1076.925415,691.142090 1071.906738,641.169250 1071.063721,590.779297 
	C1070.993164,586.559570 1071.430176,582.331299 1071.690063,576.876038 
	C1075.587280,579.575439 1078.351562,581.333740 1080.948486,583.311829 
	C1136.072876,625.300415 1191.187622,667.301819 1246.278442,709.334534 
	C1255.019653,716.003906 1263.299316,723.340454 1272.415405,729.437073 
	C1280.054443,734.545959 1283.149170,740.539978 1283.259277,749.887939 
	C1283.586670,777.680237 1288.752319,804.796814 1297.165649,831.295959 
	C1316.733643,892.929138 1351.215698,945.431213 1396.341064,991.054688 
	C1473.139282,1068.700439 1565.394775,1118.417114 1672.134644,1141.174316 
	C1710.456421,1149.344604 1749.302368,1151.740112 1788.418213,1149.912720 
	C1790.032593,1149.837402 1791.630615,1149.416016 1793.600830,1149.096924 
	C1790.836548,1125.258911 1785.369873,1102.308350 1779.003418,1079.575073 
	C1759.493408,1009.910767 1733.039795,942.754456 1704.960449,876.209534 
	C1674.032227,802.913269 1640.464478,730.823486 1605.315796,659.462585 
	C1603.069336,654.901672 1599.790894,650.647278 1601.000977,644.149292 
	C1603.165894,646.315369 1605.460693,648.367615 1607.477051,650.664185 
	C1673.052490,725.354736 1734.887329,802.967590 1790.437012,885.465576 
	C1843.369995,964.077759 1890.267334,1046.005615 1926.539307,1133.764404 
	C1951.151611,1193.312744 1970.247192,1254.495605 1981.129150,1318.083496 
	C1991.421997,1378.228760 1993.874878,1438.679199 1985.501343,1499.224731 
	C1977.437988,1557.527222 1954.193115,1609.708252 1918.990234,1656.642456 
	C1878.046997,1711.230103 1825.851318,1752.424927 1765.845215,1784.100098 
	C1708.717529,1814.256104 1647.998901,1832.964478 1583.799561,1840.358276 
	C1480.681274,1852.234131 1381.887207,1837.180664 1288.359985,1791.677612 
	C1268.397217,1781.965210 1249.924316,1769.162476 1230.898804,1757.564087 
	C1222.375122,1752.367676 1214.181030,1746.630493 1205.245605,1740.722168 
z"/>
<path fill="#FDFDFD" opacity="1.000000" stroke="none" 
	d="
M405.815491,879.592529 
	C408.261566,876.889954 410.598755,874.078796 413.169708,871.500793 
	C488.714813,795.747681 564.287903,720.022522 639.844604,644.281006 
	C660.321838,623.753662 680.844482,603.270203 701.143921,582.568176 
	C705.126831,578.506226 709.082947,576.456421 714.999573,576.466797 
	C816.319702,576.644653 917.640137,576.592346 1018.960571,576.609070 
	C1021.239197,576.609497 1023.517822,576.824829 1026.394775,576.970154 
	C1026.394775,933.826172 1026.394775,1290.310791 1026.394775,1647.403931 
	C1023.994019,1648.977783 1021.266174,1650.842163 1018.466064,1652.590698 
	C952.940918,1693.511353 887.621704,1734.767334 821.790405,1775.189575 
	C786.394653,1796.923462 747.574097,1811.010864 707.622620,1821.959229 
	C641.619568,1840.046753 574.400330,1843.797729 506.508881,1838.290283 
	C432.844147,1832.314453 363.380554,1811.949707 298.743988,1775.876587 
	C257.049316,1752.607056 218.903381,1724.340088 189.962219,1686.159180 
	C150.928604,1634.663696 119.563087,1578.821899 104.951088,1514.955078 
	C103.170914,1507.174194 101.827965,1499.292603 100.336273,1491.447388 
	C100.155037,1490.494019 100.311592,1489.476440 100.311592,1487.844727 
	C162.032898,1449.737793 223.900909,1411.540283 287.415405,1372.326172 
	C287.415405,1377.590576 287.407898,1380.798950 287.416565,1384.007324 
	C287.501160,1415.333618 287.101379,1446.670288 287.778778,1477.983887 
	C289.098694,1539.000366 305.229736,1595.604126 340.325653,1646.094360 
	C375.221863,1696.297241 421.912903,1730.760376 480.588837,1748.014526 
	C545.405884,1767.074463 610.533386,1768.213379 675.427429,1747.893921 
	C705.841736,1738.370605 734.197937,1724.322021 759.758545,1705.347168 
	C801.482788,1674.373413 823.774780,1632.493408 823.836365,1580.434692 
	C824.166199,1301.804077 823.992615,1023.172668 823.992981,744.541565 
	C823.992981,741.558960 823.992981,738.576355 823.992981,734.971313 
	C810.526123,729.535828 796.534302,727.251587 782.375061,726.037842 
	C737.288330,722.173157 694.335938,731.875000 652.319702,747.071777 
	C602.314209,765.158264 555.625000,790.019165 510.513885,817.836792 
	C475.941223,839.155945 442.016846,861.526428 406.939026,882.597046 
	C405.987762,881.040771 405.901642,880.316650 405.815491,879.592529 
z"/>
<path fill="#FEFEFE" opacity="1.000000" stroke="none" 
	d="
M1073.999512,516.595215 
	C968.190063,516.595215 863.380676,516.595215 756.487732,516.595215 
	C864.675537,387.549500 965.135437,255.504913 1052.801147,113.333290 
	C1096.367676,185.031540 1143.663208,253.124359 1193.008179,319.818665 
	C1242.333130,386.485931 1293.965454,451.334106 1347.256104,514.495300 
	C1346.992676,515.316956 1346.963989,515.694397 1346.767334,515.933777 
	C1346.591919,516.147400 1346.231079,516.320679 1345.951904,516.320984 
	C1255.634521,516.423279 1165.317017,516.509094 1073.999512,516.595215 
z"/>
<path fill="#FDFDFD" opacity="1.000000" stroke="none" 
	d="
M1074.702881,1697.200684 
	C1155.595581,1793.885132 1240.643799,1885.754272 1330.265503,1972.970581 
	C1329.908203,1973.910767 1329.836182,1974.212036 1329.685791,1974.466797 
	C1329.517944,1974.750854 1329.279053,1975.221313 1329.071167,1975.221313 
	C1141.858276,1975.253784 954.645264,1975.253662 765.898804,1975.253662 
	C768.148987,1972.447266 769.501404,1970.394287 771.203308,1968.690552 
	C829.848389,1909.981689 887.930908,1850.729492 942.881531,1788.510742 
	C970.673279,1757.043091 998.032349,1725.191162 1025.346313,1693.306519 
	C1029.366577,1688.613647 1033.145020,1685.893311 1039.670166,1686.815186 
	C1045.225098,1687.599976 1051.080688,1687.658691 1056.618408,1686.819336 
	C1063.937500,1685.709839 1068.744141,1688.358154 1072.342529,1694.332764 
	C1072.852661,1695.179688 1073.600098,1695.883667 1074.702881,1697.200684 
z"/>
<path fill="#CFCFCF" opacity="1.000000" stroke="none" 
	d="
M405.194397,879.788818 
	C405.901642,880.316650 405.987762,881.040771 406.231689,882.847290 
	C404.270660,885.514465 402.151855,887.099182 399.188293,888.527283 
	C398.343536,888.370667 397.739624,887.717224 397.739624,887.717224 
	C400.017548,885.139893 402.295441,882.562500 405.194397,879.788818 
z"/>
<path fill="#CFCFCF" opacity="1.000000" stroke="none" 
	d="
M398.630035,888.710999 
	C397.455322,889.131165 395.994110,889.210999 394.532898,889.290771 
	C395.169434,888.799500 395.806000,888.308289 397.091064,887.767151 
	C397.739624,887.717224 398.343536,888.370667 398.630035,888.710999 
z"/>
<path fill="#8A8A8A" opacity="1.000000" stroke="none" 
	d="
M1595.284912,637.526855 
	C1594.754028,637.627808 1594.550171,637.388062 1594.346313,637.148254 
	C1594.768188,637.160889 1595.190186,637.173462 1595.284912,637.526855 
z"/>
<path fill="#8A8A8A" opacity="1.000000" stroke="none" 
	d="
M1596.829956,642.048889 
	C1596.463501,641.645325 1596.096924,641.241760 1595.730469,640.838257 
	C1596.371582,640.477051 1597.012573,640.115906 1597.764160,640.819092 
	C1597.526367,641.938599 1597.178101,641.993774 1596.829956,642.048889 
z"/>
<path fill="#FEFEFE" opacity="1.000000" stroke="none" 
	d="
M1597.963257,641.362061 
	C1598.697144,641.762024 1599.342529,642.683411 1599.988037,643.604736 
	C1599.210815,643.585205 1598.433594,643.565613 1597.243164,642.797485 
	C1597.178101,641.993774 1597.526367,641.938599 1597.963257,641.362061 
z"/>
</svg>